<svg width="24" height="25" viewBox="0 0 24 25" fill="none" xmlns="http://www.w3.org/2000/svg">
<path d="M15 8.69092V10.6909H14V11.6909H13V12.6909H11V11.6909H10V10.6909H9V8.69092H10V7.69092H11V6.69092H13V7.69092H14V8.69092H15Z" fill="#04008A"/>
<path d="M19 6.69092V4.69092H18V3.69092H17V2.69092H15V1.69092H9V2.69092H7V3.69092H6V4.69092H5V6.69092H4V12.6909H5V14.6909H6V15.6909H7V17.6909H8V18.6909H9V20.6909H10V21.6909H11V23.6909H13V21.6909H14V20.6909H15V18.6909H16V17.6909H17V15.6909H18V14.6909H19V12.6909H20V6.69092H19ZM17 12.6909V14.6909H16V15.6909H15V17.6909H14V18.6909H13V20.6909H11V18.6909H10V17.6909H9V15.6909H8V14.6909H7V12.6909H6V6.69092H7V4.69092H9V3.69092H15V4.69092H17V6.69092H18V12.6909H17Z" fill="#04008A"/>
</svg>
